<svg width="34" height="50" fill="none" xmlns="http://www.w3.org/2000/svg">
  <path d="M33.217 15.633a15.69 15.69 0 00-1.21-6.094 15.18 15.18 0 00-3.281-4.95A15.2 15.2 0 0023.7 1.278C15.318-2.177 5.657 1.614 2.033 9.78A14.875 14.875 0 00.75 15.924c-.02 2.09.381 4.164 1.179 6.103a15.35 15.35 0 003.282 4.94 15.23 15.23 0 005.024 3.302 37.726 37.726 0 006.543 1.356v.592a25.093 25.093 0 01-2.318 8.111s-.061.1-.082.15a17.995 17.995 0 01-1.2 2.008c-.143.211-.276.432-.43.623l-.123.16a17.638 17.638 0 01-3.866 3.655c-.164.1-.308.22-.472.31-.896.931-1.1 1.694-.615 2.29.471.582 1.148.632 2.05.14a57.404 57.404 0 008.204-5.18 44.145 44.145 0 007.61-7.218l.174-.22a35.162 35.162 0 005.394-9.035 29.97 29.97 0 002.143-11.465v-.442c0-.15-.03-.3-.03-.471z" fill="url(#gradient)"/>
  <defs>
    <linearGradient id="gradient" x1="17" y1="0" x2="17" y2="50" gradientUnits="userSpaceOnUse">
      <stop stop-color="#29AF75"/>
      <stop offset="1" stop-color="#36DB93"/>
    </linearGradient>
  </defs>
</svg>
