<svg width="20" height="20" viewBox="0 0 20 20" fill="none" xmlns="http://www.w3.org/2000/svg">
<path d="M7.3 15.85C7.3 16.473 7.11526 17.082 6.76913 17.6C6.423 18.1181 5.93104 18.5218 5.35545 18.7602C4.77987 18.9986 4.14651 19.061 3.53547 18.9395C2.92443 18.8179 2.36315 18.5179 1.92262 18.0774C1.48208 17.6369 1.18207 17.0756 1.06053 16.4645C0.938984 15.8535 1.00136 15.2201 1.23978 14.6445C1.4782 14.069 1.88194 13.577 2.39996 13.2309C2.91797 12.8847 3.52699 12.7 4.15 12.7H15.85C16.473 12.7 17.082 12.8847 17.6 13.2309C18.1181 13.577 18.5218 14.069 18.7602 14.6445C18.9986 15.2201 19.061 15.8535 18.9395 16.4645C18.8179 17.0756 18.5179 17.6369 18.0774 18.0774C17.6369 18.5179 17.0756 18.8179 16.4645 18.9395C15.8535 19.061 15.2201 18.9986 14.6445 18.7602C14.069 18.5218 13.577 18.1181 13.2309 17.6C12.8847 17.082 12.7 16.473 12.7 15.85V4.15C12.7 3.52699 12.8847 2.91797 13.2309 2.39996C13.577 1.88194 14.069 1.4782 14.6445 1.23978C15.2201 1.00136 15.8535 0.938984 16.4645 1.06053C17.0756 1.18207 17.6369 1.48208 18.0774 1.92262C18.5179 2.36315 18.8179 2.92443 18.9395 3.53547C19.061 4.14651 18.9986 4.77987 18.7602 5.35545C18.5218 5.93104 18.1181 6.423 17.6 6.76913C17.082 7.11526 16.473 7.3 15.85 7.3H4.15C3.52699 7.3 2.91797 7.11526 2.39996 6.76913C1.88194 6.423 1.4782 5.93104 1.23978 5.35545C1.00136 4.77987 0.938984 4.14651 1.06053 3.53547C1.18207 2.92443 1.48208 2.36315 1.92262 1.92262C2.36315 1.48208 2.92443 1.18207 3.53547 1.06053C4.14651 0.938984 4.77987 1.00136 5.35545 1.23978C5.93104 1.4782 6.423 1.88194 6.76913 2.39996C7.11526 2.91797 7.3 3.52699 7.3 4.15V15.85Z" stroke="#222222" stroke-width="2"/>
</svg>
