<svg width="73" height="40" viewBox="0 0 73 40" fill="none" xmlns="http://www.w3.org/2000/svg">
<path d="M30.5 6H36.5H42.5L36.5 0L30.5 6Z" fill="#3D4C4B"/>
<rect y="6" width="73" height="34" rx="8" fill="#3D4C4B"/>
<path d="M10.3118 28L11.152 25.4893H14.9801L15.8253 28H17.794L14.2045 17.8182H11.9276L8.34304 28H10.3118ZM11.6491 24.0078L13.0263 19.9062H13.1058L14.483 24.0078H11.6491ZM22.1541 28.1491C24.0732 28.1491 25.2962 27.0107 25.4254 25.3899H23.7053C23.5511 26.2102 22.9595 26.6825 22.169 26.6825C21.0455 26.6825 20.3196 25.7429 20.3196 24.1818C20.3196 22.6406 21.0604 21.7159 22.169 21.7159C23.0341 21.7159 23.5661 22.2727 23.7053 23.0085H25.4254C25.3011 21.353 24.0085 20.2642 22.1442 20.2642C19.907 20.2642 18.495 21.88 18.495 24.2116C18.495 26.5234 19.8722 28.1491 22.1541 28.1491ZM30.2342 28.1491C32.1532 28.1491 33.3762 27.0107 33.5055 25.3899H31.7853C31.6312 26.2102 31.0396 26.6825 30.2491 26.6825C29.1255 26.6825 28.3997 25.7429 28.3997 24.1818C28.3997 22.6406 29.1404 21.7159 30.2491 21.7159C31.1142 21.7159 31.6461 22.2727 31.7853 23.0085H33.5055C33.3812 21.353 32.0886 20.2642 30.2243 20.2642C27.987 20.2642 26.5751 21.88 26.5751 24.2116C26.5751 26.5234 27.9522 28.1491 30.2342 28.1491ZM38.3143 28.1491C40.5515 28.1491 41.9734 26.5732 41.9734 24.2116C41.9734 21.8452 40.5515 20.2642 38.3143 20.2642C36.0771 20.2642 34.6552 21.8452 34.6552 24.2116C34.6552 26.5732 36.0771 28.1491 38.3143 28.1491ZM38.3242 26.7074C37.0863 26.7074 36.4798 25.6037 36.4798 24.2067C36.4798 22.8097 37.0863 21.6911 38.3242 21.6911C39.5423 21.6911 40.1488 22.8097 40.1488 24.2067C40.1488 25.6037 39.5423 26.7074 38.3242 26.7074ZM48.3681 24.7884C48.3681 25.9517 47.5378 26.5284 46.7424 26.5284C45.8773 26.5284 45.3006 25.9169 45.3006 24.9474V20.3636H43.5009V25.2259C43.5009 27.0604 44.5449 28.0994 46.0463 28.0994C47.1898 28.0994 47.9952 27.4979 48.3432 26.6428H48.4228V28H50.1678V20.3636H48.3681V24.7884ZM53.8182 23.5256C53.8182 22.4219 54.4844 21.7855 55.4339 21.7855C56.3636 21.7855 56.9205 22.397 56.9205 23.4162V28H58.7202V23.1378C58.7251 21.3082 57.6811 20.2642 56.1051 20.2642C54.9616 20.2642 54.1761 20.8111 53.8281 21.6612H53.7386V20.3636H52.0185V28H53.8182V23.5256ZM64.3629 20.3636H62.8565V18.5341H61.0568V20.3636H59.973V21.7557H61.0568V26.0014C61.0469 27.4382 62.0909 28.1442 63.4432 28.1044C63.9553 28.0895 64.3082 27.9901 64.5021 27.9254L64.1989 26.5185C64.0994 26.5433 63.8956 26.5881 63.6719 26.5881C63.2195 26.5881 62.8565 26.429 62.8565 25.7031V21.7557H64.3629V20.3636Z" fill="white"/>
</svg>
