<svg width="24" height="24" viewBox="0 0 24 24" fill="none" xmlns="http://www.w3.org/2000/svg">
<path fill-rule="evenodd" clip-rule="evenodd" d="M12.5146 4.91226C10.6859 4.91226 9.20341 6.41052 9.20341 8.25871C9.20341 10.1069 10.6859 11.6052 12.5146 11.6052C14.3433 11.6052 15.8258 10.1069 15.8258 8.25871C15.8258 6.41052 14.3433 4.91226 12.5146 4.91226ZM7.31131 8.25871C7.31131 5.35441 9.64089 3 12.5146 3C15.3883 3 17.7179 5.35441 17.7179 8.25871C17.7179 10.1467 16.7334 11.8023 15.255 12.7298C16.4014 13.0349 17.4099 13.5531 18.2596 14.3045C19.7357 15.6101 20.6148 17.5162 20.9882 19.8939C21.0701 20.4154 20.7181 20.9053 20.2021 20.988C19.6861 21.0708 19.2013 20.7151 19.1195 20.1936C18.7922 18.1093 18.0598 16.669 17.0135 15.7436C15.9707 14.8212 14.4989 14.307 12.4865 14.307C10.474 14.307 9.00534 14.8213 7.96756 15.7424C6.92636 16.6666 6.19999 18.1057 5.88112 20.1898C5.80128 20.7117 5.31797 21.0693 4.80162 20.9886C4.28526 20.9079 3.9314 20.4195 4.01125 19.8976C4.37504 17.5198 5.24673 15.6124 6.71898 14.3056C7.57595 13.545 8.59633 13.0233 9.75797 12.7196C8.28857 11.7902 7.31131 10.1398 7.31131 8.25871Z" fill="#595959"/>
</svg>
