<svg width="12" height="14" viewBox="0 0 12 14" fill="none" xmlns="http://www.w3.org/2000/svg">
<path d="M2.22058 10.5892C2.22058 10.9548 2.51902 11.2533 2.88621 11.2533H3.64714V13.1345C3.64714 13.6111 4.02996 14.0001 4.50027 14.0001C4.97214 14.0001 5.35339 13.6126 5.35339 13.1345V11.2517H6.68152V13.1329C6.68152 13.6095 7.06433 13.9986 7.53464 13.9986C8.00652 13.9986 8.38777 13.6111 8.38777 13.1329V11.2517H9.14871C9.51589 11.2517 9.81433 10.9533 9.81433 10.5876V4.41263H2.22058V10.5892ZM7.80027 1.21263L8.50183 0.19701C8.54246 0.137635 8.53308 0.0579473 8.47839 0.0188848C8.42371 -0.0186152 8.34558 0.000134859 8.30496 0.0595099L7.57683 1.11576C7.09714 0.926697 6.56277 0.82201 6.00183 0.82201C5.44089 0.82201 4.90652 0.926697 4.42683 1.11576L3.69871 0.0610723C3.65808 0.00169734 3.57996 -0.0186151 3.52527 0.0204474C3.47058 0.0579474 3.46121 0.136072 3.50183 0.198572L4.20339 1.2142C3.08777 1.73295 2.30652 2.71576 2.20652 3.8642H9.80027C9.69714 2.7142 8.91433 1.73138 7.80027 1.21263ZM4.39871 2.8142C4.31558 2.8142 4.23431 2.78955 4.16519 2.74336C4.09607 2.69718 4.0422 2.63153 4.01039 2.55473C3.97858 2.47793 3.97025 2.39342 3.98647 2.31189C4.00269 2.23035 4.04272 2.15546 4.1015 2.09668C4.16028 2.0379 4.23518 1.99787 4.31671 1.98165C4.39824 1.96543 4.48275 1.97375 4.55955 2.00557C4.63636 2.03738 4.702 2.09125 4.74818 2.16037C4.79437 2.22949 4.81902 2.31075 4.81902 2.39388C4.81873 2.50527 4.77435 2.61201 4.69559 2.69077C4.61683 2.76953 4.51009 2.81391 4.39871 2.8142ZM7.65496 2.8142C7.57183 2.8142 7.49056 2.78955 7.42144 2.74336C7.35232 2.69718 7.29845 2.63153 7.26664 2.55473C7.23483 2.47793 7.2265 2.39342 7.24272 2.31189C7.25894 2.23035 7.29897 2.15546 7.35775 2.09668C7.41653 2.0379 7.49143 1.99787 7.57296 1.98165C7.65449 1.96543 7.739 1.97375 7.8158 2.00557C7.89261 2.03738 7.95825 2.09125 8.00443 2.16037C8.05062 2.22949 8.07527 2.31075 8.07527 2.39388C8.07498 2.50527 8.03061 2.61201 7.95184 2.69077C7.87308 2.76953 7.76634 2.81391 7.65496 2.8142ZM11.1456 4.38763C10.6737 4.38763 10.2925 4.77514 10.2925 5.25326V8.63451C10.2925 9.11107 10.6753 9.50013 11.1456 9.50013C11.6175 9.50013 11.9987 9.11263 11.9987 8.63451V5.2517C12.0003 4.77357 11.619 4.38763 11.1456 4.38763ZM0.854956 4.38763C0.383081 4.38763 0.00183105 4.77514 0.00183105 5.25326V8.63451C0.00183105 9.11107 0.384643 9.50013 0.854956 9.50013C1.32683 9.50013 1.70808 9.11263 1.70808 8.63451V5.2517C1.70808 4.77357 1.32527 4.38763 0.854956 4.38763Z" fill="currentColor"/>
</svg>
