<svg width="55" height="40" viewBox="0 0 55 40" fill="none" xmlns="http://www.w3.org/2000/svg">
<path d="M21.5 6H27.5H33.5L27.5 0L21.5 6Z" fill="#3D4C4B"/>
<rect y="6" width="55" height="34" rx="8" fill="#3D4C4B"/>
<path d="M17.7195 21.2536C17.4062 18.9915 15.6662 17.679 13.4091 17.679C10.7493 17.679 8.74574 19.6179 8.74574 22.9091C8.74574 26.1953 10.7244 28.1392 13.4091 28.1392C15.8303 28.1392 17.4361 26.5732 17.7195 24.6293L15.8601 24.6193C15.6264 25.8125 14.652 26.4837 13.4339 26.4837C11.7834 26.4837 10.6001 25.2457 10.6001 22.9091C10.6001 20.6122 11.7734 19.3345 13.4389 19.3345C14.6768 19.3345 15.6463 20.0355 15.8601 21.2536H17.7195ZM21.1287 17.8182H19.329V28H21.1287V17.8182ZM26.3104 28.1491C28.5476 28.1491 29.9695 26.5732 29.9695 24.2116C29.9695 21.8452 28.5476 20.2642 26.3104 20.2642C24.0732 20.2642 22.6513 21.8452 22.6513 24.2116C22.6513 26.5732 24.0732 28.1491 26.3104 28.1491ZM26.3203 26.7074C25.0824 26.7074 24.4759 25.6037 24.4759 24.2067C24.4759 22.8097 25.0824 21.6911 26.3203 21.6911C27.5384 21.6911 28.1449 22.8097 28.1449 24.2067C28.1449 25.6037 27.5384 26.7074 26.3203 26.7074ZM37.5325 22.3821C37.2839 21.0895 36.2498 20.2642 34.46 20.2642C32.6206 20.2642 31.3677 21.169 31.3727 22.581C31.3677 23.6946 32.0538 24.4304 33.5204 24.7337L34.823 25.0071C35.524 25.1612 35.8521 25.4446 35.8521 25.8771C35.8521 26.3991 35.2853 26.7919 34.4302 26.7919C33.6049 26.7919 33.068 26.4339 32.9139 25.7479L31.1589 25.9169C31.3826 27.3189 32.5609 28.1491 34.4352 28.1491C36.3443 28.1491 37.6916 27.1598 37.6966 25.7131C37.6916 24.6243 36.9906 23.9581 35.5488 23.6449L34.2463 23.3665C33.4707 23.1925 33.1625 22.924 33.1674 22.4815C33.1625 21.9645 33.7342 21.6065 34.4849 21.6065C35.3152 21.6065 35.7527 22.0589 35.8919 22.5611L37.5325 22.3821ZM42.5613 28.1491C44.3411 28.1491 45.5641 27.2791 45.8823 25.9517L44.2019 25.7628C43.9583 26.4091 43.3617 26.7472 42.5861 26.7472C41.4228 26.7472 40.6522 25.9815 40.6373 24.674H45.9569V24.1222C45.9569 21.4425 44.3461 20.2642 42.4668 20.2642C40.2793 20.2642 38.8525 21.87 38.8525 24.2266C38.8525 26.6229 40.2594 28.1491 42.5613 28.1491ZM40.6422 23.4609C40.6969 22.4865 41.4178 21.6662 42.4917 21.6662C43.5257 21.6662 44.2218 22.4219 44.2317 23.4609H40.6422Z" fill="white"/>
</svg>
