<svg width="200" height="200" viewBox="0 0 200 200" fill="none" xmlns="http://www.w3.org/2000/svg">
<g clip-path="url(#clip0_2641_10907)">
<path fill-rule="evenodd" clip-rule="evenodd" d="M128.55 55.1548C144.271 65.1514 162.604 72.2229 170.121 89.24C178.723 108.713 182.015 132.607 170.7 150.571C159.597 168.199 136.001 169.931 115.854 175.399C95.5327 180.914 73.4307 192.815 55.3938 181.865C37.4713 170.984 38.4122 145.875 33.6643 125.5C29.1866 106.285 21.0054 86.7633 29.0428 68.7855C37.7327 49.3484 55.3441 32.6022 76.4919 29.7053C96.3549 26.9844 111.605 44.3807 128.55 55.1548Z" fill="#FFDAD4"/>
<path d="M78.7107 39.4015C78.3774 39.7348 80.0441 42.4015 80.0441 42.4015C80.0441 42.4015 79.7556 41.7415 79.8041 41.0976C79.8227 40.8505 80.5576 40.9391 80.7108 40.7349C80.9138 40.4641 80.6163 40.0141 81.002 39.9747C81.6653 39.907 82.3774 40.0682 82.3774 40.0682C82.3774 40.0682 79.0441 39.0682 78.7107 39.4015Z" fill="black"/>
<path d="M80.0441 42.4015L87.3774 47.4015L89.3774 44.4015L82.3774 40.0682C82.3774 40.0682 81.6653 39.907 81.002 39.9747C80.6163 40.0141 80.9138 40.4641 80.7108 40.7349C80.5576 40.9391 79.8227 40.8505 79.8041 41.0976C79.7556 41.7415 80.0441 42.4015 80.0441 42.4015Z" fill="#29AF75"/>
<circle cx="83.1342" cy="49.7349" r="5" fill="#95735E"/>
<circle cx="119.801" cy="57.0679" r="5" fill="#95735E"/>
<path d="M85.4954 83.4014C88.2408 76.8664 87.8287 65.4014 87.8287 65.4014H112.162C112.162 65.4014 112.057 76.858 114.829 83.4014C116.632 87.6579 121.162 93.4014 121.162 93.4014L112.162 103.068H90.4954L79.4954 91.4014C79.4954 91.4014 84.0254 86.9003 85.4954 83.4014Z" fill="#AA8065"/>
<path d="M53.1342 143.068C49.9494 133.321 51.8009 121.401 51.8009 121.401L69.4676 120.068C69.4676 120.068 71.5574 127.324 72.4676 132.068C74.0198 140.158 74.4676 153.068 74.4676 153.068L62.4676 162.735C62.4676 162.735 55.1787 149.325 53.1342 143.068Z" fill="#AA8065"/>
<path d="M127.908 147.866C127.498 140.476 128.647 126.189 128.647 126.189L150.377 126.263C150.377 126.263 151.208 145.057 149.505 149.602C147.802 154.147 142.657 158.588 137.208 156.974C133.676 155.927 128.317 155.256 127.908 147.866Z" fill="#AA8065"/>
<path d="M103.485 94.4022C103.485 94.4022 103.485 94.4022 103.485 94.4022L103.485 94.4022L103.489 94.4024L103.503 94.403C103.516 94.4036 103.535 94.4043 103.56 94.4052C103.61 94.4069 103.683 94.4088 103.774 94.4099C103.955 94.412 104.204 94.4105 104.478 94.396C105.045 94.366 105.644 94.2829 105.979 94.1066C106.096 94.0454 106.207 93.9083 106.297 93.6717C106.386 93.4397 106.438 93.1541 106.465 92.8645C106.492 92.5775 106.493 92.3017 106.487 92.0963C106.484 91.9941 106.479 91.9104 106.476 91.8527C106.474 91.8332 106.473 91.8167 106.472 91.8035C106.472 91.7973 106.471 91.7918 106.471 91.7871L106.469 91.7709L106.469 91.7673L106.469 91.7668L106.469 91.7667C106.469 91.7667 106.469 91.7668 106.801 91.735C106.801 91.735 108.127 91.1512 108.468 90.4017C108.829 89.6067 107.801 87.735 107.801 87.735L103.485 94.4022ZM103.485 94.4022C103.41 94.3984 103.336 94.4199 103.275 94.4633L103.468 94.7351C103.275 94.4633 103.275 94.4633 103.275 94.4634L103.274 94.4636L103.273 94.4646L103.267 94.4687L103.245 94.4845L103.158 94.5462C103.13 94.5662 103.097 94.5897 103.059 94.6165C102.996 94.662 102.918 94.7171 102.829 94.781C102.545 94.9837 102.14 95.2744 101.653 95.6263C100.678 96.33 99.3743 97.279 98.0599 98.2596C96.7463 99.2396 95.4188 100.253 94.3975 101.086C93.8875 101.502 93.4494 101.876 93.1264 102.181C92.9652 102.332 92.828 102.471 92.7235 102.592C92.629 102.701 92.5283 102.832 92.4847 102.963C92.4517 103.062 92.4299 103.202 92.4125 103.353C92.394 103.512 92.3775 103.712 92.3623 103.947C92.3318 104.418 92.3055 105.041 92.2799 105.784C92.2558 106.487 92.2319 107.307 92.2055 108.213C92.1765 109.21 92.1445 110.31 92.1058 111.468C91.9574 115.911 91.7077 121.313 91.137 125.692C90.7428 128.717 90.5405 131.503 90.3509 134.13L90.3474 134.179C90.1589 136.791 89.9821 139.241 89.6415 141.626C88.9578 146.414 87.6151 150.931 84.1934 155.879C83.9194 156.275 83.6588 156.656 83.4074 157.024C81.2449 160.188 79.7626 162.357 76.2953 164.45C75.6935 164.813 75.0975 165.193 74.5065 165.569C72.977 166.544 71.481 167.498 70.005 168.087C68.9926 168.491 68.019 168.709 67.0839 168.645C66.1557 168.581 65.2438 168.237 64.3495 167.481C63.2514 166.552 62.7589 165.534 62.4679 164.372C62.3207 163.784 62.2254 163.161 62.1302 162.487C62.1176 162.398 62.1051 162.308 62.0925 162.218C62.0096 161.626 61.9216 160.997 61.7949 160.339C60.7188 154.749 61.7989 149.151 63.4324 145.884C64.2599 144.229 65.0878 142.822 65.7086 141.828C66.0189 141.332 66.2772 140.939 66.4576 140.671C66.5478 140.537 66.6185 140.434 66.6665 140.365C66.6905 140.331 66.7087 140.305 66.7209 140.287L66.7346 140.268L66.7379 140.263L66.7387 140.262L66.7388 140.262C66.7475 140.25 66.7555 140.237 66.7625 140.224L66.4676 140.068C66.7625 140.224 66.7625 140.224 66.7625 140.224L66.7627 140.223L66.7633 140.222L66.7656 140.218L66.7748 140.2L66.8108 140.132L66.9496 139.867C67.0704 139.637 67.2455 139.302 67.4633 138.883C67.8988 138.046 68.5048 136.874 69.1868 135.537C70.5501 132.864 72.2194 129.526 73.4371 126.874C77.2622 118.545 80.4975 108.134 83.0337 99.4745C83.532 97.773 84.0031 96.14 84.4463 94.6034C85.1326 92.2244 85.7523 90.0761 86.3037 88.2612C86.7571 86.7684 87.1622 85.5084 87.5178 84.5371C87.8785 83.5517 88.1744 82.9038 88.4009 82.6018C88.6386 82.2849 89.0867 81.8409 89.7102 81.2974C90.3284 80.7584 91.1021 80.1358 91.9762 79.4636C93.7242 78.1192 95.8627 76.5843 97.9392 75.134C100.015 73.6841 102.026 72.3206 103.519 71.3194C104.265 70.8189 104.882 70.4091 105.311 70.1244C105.526 69.982 105.694 69.871 105.809 69.7956L105.939 69.7097L105.946 69.7055C105.949 69.7044 105.953 69.7032 105.958 69.7019C105.993 69.6913 106.044 69.6763 106.109 69.6595C106.238 69.6257 106.416 69.5856 106.61 69.5591C106.805 69.5323 107.007 69.5207 107.189 69.5389C107.374 69.5573 107.512 69.6037 107.604 69.6708C107.867 69.8632 108.043 70.0481 108.134 70.2441C108.219 70.4242 108.247 70.6446 108.155 70.9491C108.153 70.9529 108.149 70.9581 108.144 70.9648C108.124 70.9918 108.092 71.0301 108.045 71.0805C107.952 71.1809 107.817 71.3126 107.643 71.4731C107.295 71.7934 106.808 72.2128 106.226 72.6984C105.062 73.6688 103.531 74.8925 102.005 76.0941C100.479 77.2952 98.961 78.4726 97.824 79.3498C97.2555 79.7884 96.7824 80.1519 96.4515 80.4057C96.286 80.5326 96.1561 80.6321 96.0676 80.6998L95.9665 80.7771L95.9406 80.7968L95.9341 80.8018L95.9325 80.8031L95.9321 80.8034C95.932 80.8035 95.9319 80.8035 96.1342 81.0684M103.485 94.4022L107.509 87.8954M107.509 87.8954C107.489 87.8589 107.476 87.8189 107.47 87.7775L107.47 87.7774L107.47 87.777L107.47 87.7754L107.469 87.7687L107.466 87.7417L107.452 87.6367C107.439 87.5453 107.421 87.4123 107.397 87.2473C107.349 86.9171 107.279 86.4587 107.191 85.9464C107.014 84.9158 106.767 83.6876 106.485 82.8404C106.011 81.4189 105.32 80.8307 104.666 80.5396C104.327 80.3893 103.983 80.3115 103.648 80.2505C103.579 80.238 103.509 80.226 103.438 80.214C103.181 80.1699 102.915 80.1245 102.695 80.0513C102.635 80.0311 102.492 80.016 102.245 80.0295C102.011 80.0422 101.721 80.078 101.391 80.1317C100.731 80.2391 99.939 80.4139 99.1713 80.6006C98.4049 80.7871 97.6689 80.984 97.124 81.1345C96.8517 81.2097 96.6275 81.2732 96.4714 81.3179C96.3934 81.3403 96.3325 81.3579 96.2911 81.3699L96.244 81.3836L96.2321 81.3871L96.2292 81.388L96.2285 81.3882L96.2283 81.3882L96.1342 81.0684M107.509 87.8954L107.509 87.8955L107.509 87.8955M107.509 87.8954L107.509 87.8955M96.1342 81.0684L96.2283 81.3882C96.0741 81.4336 95.9095 81.3625 95.8369 81.2191C95.7642 81.0758 95.8042 80.901 95.9319 80.8035L96.1342 81.0684ZM107.509 87.8955L107.509 87.8961L107.511 87.8994L107.518 87.9135C107.522 87.9205 107.527 87.9293 107.532 87.9399C107.537 87.9489 107.543 87.9592 107.549 87.9707C107.575 88.0209 107.612 88.0942 107.656 88.1848C107.743 88.3667 107.856 88.6157 107.957 88.8869C108.059 89.1599 108.146 89.4452 108.187 89.7019C108.229 89.9683 108.214 90.155 108.164 90.2638C108.037 90.5429 107.696 90.8319 107.327 91.0687C107.151 91.1814 106.984 91.2725 106.861 91.3355C106.8 91.3668 106.75 91.391 106.716 91.407C106.699 91.4151 106.686 91.4211 106.678 91.4249L106.669 91.4291L106.667 91.4299L106.667 91.43C106.667 91.43 106.667 91.43 106.666 91.43L107.509 87.8955Z" stroke="black" stroke-width="0.666667" stroke-linejoin="round"/>
<path d="M81.9792 66.6205C79.472 57.2094 86.9936 40.0679 86.9936 40.0679L121.468 46.4539C121.468 46.4539 120.513 66.9948 112.066 74.0149C106.404 78.7201 101.583 80.9757 94.5152 79.7287C86.8572 78.3776 84.1113 74.6235 81.9792 66.6205Z" fill="#AD8469"/>
<path d="M50.1342 106.735C50.1342 106.735 69.162 126.068 99.4954 126.068C129.829 126.068 149.495 106.735 149.495 106.735C149.495 106.735 146.725 99.5914 143.495 96.0684C136.317 88.2374 117.495 88.0684 117.495 88.0684C117.495 88.0684 107.829 99.0684 99.4954 99.0684C91.162 99.0684 82.162 88.0684 82.162 88.0684C82.162 88.0684 63.6276 88.5104 56.162 96.0684C52.71 99.5632 50.1342 106.735 50.1342 106.735Z" fill="#3D4C4B"/>
<path d="M70.1342 106.735H129.468C129.468 106.735 130.602 174.136 129.468 177.402C128.333 180.667 111.616 183.333 99.8009 183.333C87.986 183.333 71.3333 183.333 70.1342 177.402C68.9351 171.47 70.1342 106.735 70.1342 106.735Z" fill="#3D4C4B"/>
<path d="M48.1342 120.068C47.3677 114.877 50.1342 106.735 50.1342 106.735L72.1342 119.735L72.1342 124.068C72.1342 124.068 64.4477 123.17 60.8009 123.402C56.2632 123.689 49.4676 126.068 49.4676 126.068C49.4676 126.068 48.4894 122.474 48.1342 120.068Z" fill="#3D4C4B"/>
<path d="M152.134 122.402C152.333 116.15 149.468 106.735 149.468 106.735L124.468 121.402L128.134 130.068C128.134 130.068 135.729 127.432 140.134 127.068C144.821 126.681 152.134 128.068 152.134 128.068C152.134 128.068 152.063 124.629 152.134 122.402Z" fill="#3D4C4B"/>
<path d="M118.918 114.819C118.919 114.54 118.865 114.264 118.76 114.006C118.662 113.76 118.516 113.536 118.332 113.346C118.145 113.157 117.922 113.006 117.676 112.905C116.582 112.444 115.321 112.95 114.848 114.038C114.736 114.297 114.679 114.576 114.681 114.858C114.678 115.136 114.731 115.413 114.835 115.671C114.934 115.916 115.079 116.14 115.263 116.33C115.45 116.519 115.673 116.669 115.919 116.77C116.198 116.856 116.483 116.917 116.773 116.951C116.773 116.995 116.773 117.029 116.773 117.03C116.733 117.405 116.63 117.77 116.47 118.111C116.47 118.111 116.462 118.125 116.46 118.132C116.413 118.224 116.361 118.313 116.303 118.399C116.284 118.427 116.267 118.457 116.247 118.482L116.231 118.504C116.088 118.691 115.918 118.855 115.726 118.991C115.705 119.004 115.686 119.02 115.665 119.032C115.548 119.156 115.521 119.258 115.584 119.338C115.646 119.415 115.734 119.422 115.852 119.356C116.228 119.157 116.586 118.926 116.923 118.666C117.291 118.385 117.624 118.062 117.916 117.703L117.939 117.674C118.232 117.309 118.469 116.903 118.642 116.469C118.833 115.982 118.928 115.463 118.922 114.941C118.922 114.92 118.922 114.902 118.922 114.882C118.922 114.862 118.918 114.841 118.918 114.819Z" fill="#36DB93"/>
<path d="M99.8009 143.735C112.575 143.691 120.039 140.684 132.667 143C138.439 144.059 143.134 144.735 147.134 147.068C149.59 148.501 149.978 151.353 149.134 154.068C148.254 156.903 145.798 157.426 143.134 158.735C137.872 161.321 133.998 159.421 128.134 159.402C117.021 159.365 110.792 158.378 99.8009 156.735C90.4841 155.342 76.1342 152.068 76.1342 152.068L73.4676 147.068C73.4676 147.068 77.8544 145.179 80.8009 144.402C87.9798 142.508 92.3764 143.761 99.8009 143.735Z" fill="#BF9578"/>
<path d="M85 154L89.6667 143.333L90.6667 143.373C90.7576 145.53 90.6667 148.333 90.6667 148.333C90.6667 148.333 90.3333 152.533 89.3333 154.867L85 154Z" fill="#AA8065"/>
<path d="M99.5452 52.4719C99.7683 52.179 99.7118 51.7607 99.4189 51.5376C99.1261 51.3144 98.7077 51.371 98.4846 51.6638L99.5452 52.4719ZM95.0149 62.0679L94.4057 62.3386L95.0149 62.0679ZM101.097 60.9223C101.385 60.6926 101.432 60.2732 101.203 59.9854C100.973 59.6976 100.554 59.6505 100.266 59.8801L101.097 60.9223ZM99.0149 52.0679C98.4846 51.6638 98.4845 51.664 98.4844 51.6641C98.4844 51.6642 98.4842 51.6643 98.4841 51.6645C98.4839 51.6648 98.4835 51.6653 98.4831 51.6658C98.4823 51.6669 98.4812 51.6684 98.4797 51.6703C98.4768 51.6741 98.4726 51.6797 98.4672 51.6868C98.4565 51.7011 98.4408 51.7219 98.4207 51.749C98.3804 51.803 98.3222 51.8819 98.2489 51.9828C98.1023 52.1847 97.8953 52.4753 97.6515 52.8331C97.1647 53.5474 96.5273 54.535 95.9305 55.622C95.3362 56.7045 94.7689 57.9092 94.4371 59.0541C94.1128 60.173 93.9737 61.3667 94.4057 62.3386L95.6241 61.7971C95.3894 61.2691 95.417 60.4627 95.7177 59.4253C96.0109 58.414 96.5269 57.3062 97.0993 56.2637C97.6692 55.2257 98.2818 54.2758 98.7533 53.5839C98.9887 53.2386 99.1879 52.9589 99.3278 52.7662C99.3977 52.6699 99.4527 52.5954 99.49 52.5455C99.5086 52.5205 99.5227 52.5017 99.532 52.4893C99.5367 52.4831 99.5402 52.4785 99.5424 52.4756C99.5435 52.4742 99.5443 52.4731 99.5447 52.4725C99.545 52.4722 99.5451 52.472 99.5452 52.4719C99.5452 52.4718 99.5452 52.4718 99.5453 52.4718C99.5452 52.4718 99.5452 52.4719 99.0149 52.0679ZM94.4057 62.3386C94.5857 62.7437 94.8772 63.04 95.2538 63.2094C95.6138 63.3714 96.0026 63.396 96.3618 63.3601C97.0676 63.2896 97.8391 62.9661 98.5087 62.6157C99.1934 62.2573 99.8397 61.8338 100.31 61.504C100.547 61.3383 100.742 61.1943 100.878 61.0912C100.947 61.0396 101 60.9982 101.038 60.9692C101.056 60.9548 101.071 60.9434 101.081 60.9355C101.086 60.9316 101.09 60.9284 101.092 60.9262C101.094 60.9251 101.095 60.9242 101.096 60.9236C101.096 60.9232 101.097 60.923 101.097 60.9228C101.097 60.9226 101.097 60.9225 101.097 60.9225C101.097 60.9224 101.097 60.9223 100.682 60.4012C100.266 59.8801 100.266 59.8801 100.266 59.88C100.266 59.88 100.266 59.88 100.266 59.88C100.266 59.88 100.266 59.8801 100.266 59.8802C100.265 59.8805 100.265 59.8809 100.264 59.8816C100.262 59.883 100.259 59.8853 100.255 59.8884C100.247 59.8947 100.235 59.9042 100.219 59.9169C100.186 59.9423 100.138 59.9798 100.075 60.0274C99.9488 60.1224 99.7668 60.2569 99.5454 60.412C99.1 60.7241 98.5053 61.1125 97.8904 61.4343C97.2605 61.764 96.6738 61.989 96.2293 62.0334C96.0133 62.0549 95.8789 62.0286 95.8009 61.9935C95.7395 61.9659 95.6783 61.919 95.6241 61.7971L94.4057 62.3386Z" fill="#1A1A1A"/>
<path d="M94.8009 71.525C94.8009 71.525 95.0674 69.482 97.4676 68.5251C99.4023 67.7538 102.801 68.1917 102.801 68.1917" stroke="#1A1A1A" stroke-width="1.33333" stroke-linecap="round"/>
<path d="M61.4676 160.402C60.3778 154.741 61.4676 149.068 63.1342 145.735C64.8009 142.402 66.4676 140.068 66.4676 140.068C66.4676 140.068 70.7047 132.026 73.1342 126.735C80.7618 110.125 86.0521 85.1779 88.1342 82.4018C90.2163 79.6256 105.801 69.4018 105.801 69.4018C105.801 69.4018 107.171 68.9405 107.801 69.4018C108.367 69.8157 108.707 70.3017 108.468 71.0684C108.228 71.8352 96.1342 81.0684 96.1342 81.0684C96.1342 81.0684 101.801 79.4017 102.801 79.735C103.801 80.0684 105.801 79.735 106.801 82.735C107.383 84.4815 107.801 87.735 107.801 87.735C107.801 87.735 108.829 89.6067 108.468 90.4017C108.127 91.1512 106.801 91.735 106.801 91.735C106.801 91.735 107.012 93.9407 106.134 94.4017C105.319 94.8297 103.468 94.7351 103.468 94.7351C103.468 94.7351 93.1342 102.068 92.8009 103.068C92.4676 104.069 92.6135 116.942 91.4676 125.735C89.8964 137.79 91.3826 146.069 84.4676 156.068C81.8476 159.857 80.4109 162.355 76.4676 164.735C72.2238 167.297 67.9185 170.937 64.1342 167.735C61.8078 165.767 62.0437 163.394 61.4676 160.402Z" fill="#BF9578"/>
<path d="M92.7326 29.9772C90.3203 28.4165 90.8295 26.061 91.3333 23.3335C91.8849 20.3475 95.1001 18.6812 98.2766 18.5289C100.651 18.415 104.33 20.9062 103.836 23.5363C103.611 24.7294 100.446 26.7383 100.276 24.7021C100.081 22.3675 102.978 20.3224 104.667 19.6668C106.378 19.0024 108.667 19.3335 110.583 19.9473C111.879 20.2593 112.34 21.4306 112.766 22.5567C113.241 23.8099 113.706 26.0431 112.247 26.8646C110.193 28.0216 109.574 25.5142 110.795 24.2247C112.404 22.5254 114.756 21.3646 117 21.6668C118.268 21.8375 120.099 22.8626 120.946 23.978C121.642 24.8944 121.392 26.4978 121.161 27.5177C120.886 28.7331 120.283 30.3337 119.047 30.891C118.154 31.2938 116.971 31.0971 116.563 30.123C115.525 27.6439 119.185 26.0996 121.125 26.3316C123.295 26.591 125.387 28.0093 125.667 30.3335C126.097 33.916 123.424 36.7281 120.45 38.6562C119.403 39.3354 116.986 39.6393 117.262 37.7297C117.392 36.8305 119.097 36.1588 119.954 36.1885C121.418 36.2393 121.966 36.967 121.861 38.4741C121.728 40.3681 121.245 42.321 119.484 43.3424C117.044 44.7581 113.645 44.3937 111.018 43.7419C107.797 42.9427 103.493 40.5842 103.592 36.7863C103.639 34.9907 105.261 34.0275 106.956 34.1047C108.62 34.1804 108.101 36.4252 107.929 37.5043C107.544 39.9245 105.552 41.1202 103.209 41.1138C99.441 41.1036 95.7207 40.1683 94.8365 36.1561C94.5555 34.8811 94.3325 33.3469 95.6869 32.8272C96.645 32.4596 97.5895 32.4236 97.5949 33.5914C97.6081 36.4168 94.8059 37.4568 92.2566 37.5658C90.2897 37.6499 86.5242 37.0901 85.7883 34.9159C84.6637 31.593 88.9446 28.562 91.4946 27.5201C93.7673 26.5914 96.4016 26.7909 98.786 27.1891C99.5957 27.3243 100.193 28.0332 99.3128 28.6506C97.3 30.0627 94.9731 30.4622 92.7326 29.9772Z" stroke="#1A1A1A" stroke-width="1.33333" stroke-linecap="round"/>
</g>
<defs>
<clipPath id="clip0_2641_10907">
<rect width="200" height="200" fill="white"/>
</clipPath>
</defs>
</svg>
