<svg width="300" height="300" viewBox="0 0 300 300" fill="none" xmlns="http://www.w3.org/2000/svg">
<path d="M19.5522 237.557C19.5522 238.316 19.9077 239.036 20.5098 239.498C20.9395 239.828 21.4608 240 21.9953 240C22.2069 240 22.4228 239.972 22.6344 239.915C99.7024 219.037 147.855 227.542 149.24 227.793C149.242 227.793 149.253 227.793 149.255 227.795C149.262 227.795 149.29 227.802 149.295 227.802C149.413 227.824 149.524 227.793 149.639 227.8C149.831 227.808 150.021 227.841 150.22 227.802C150.695 227.71 199.073 218.828 276.887 239.913C277.099 239.968 277.314 239.998 277.526 239.998C278.056 239.998 278.577 239.826 279.012 239.496C279.618 239.034 279.969 238.316 279.969 237.555V229.375L282.499 93.3879C282.513 92.5611 282.111 91.7824 281.424 91.3199L261.888 78.092L261.622 72.0454C261.589 71.3212 261.238 70.6472 260.66 70.2087C260.084 69.7681 259.345 69.6132 258.634 69.7724C251.784 71.3364 246.089 72.0956 241.226 72.0956C233.271 72.0956 228.031 70.0953 221.391 67.5649C216.837 65.8264 211.673 63.8588 204.719 62.1901C198.666 60.7373 192.888 60 187.55 60C164.5 60 153.929 73.5747 149.75 81.3469C145.57 73.5747 135 60 111.95 60C106.61 60 100.836 60.7351 94.7803 62.1901C87.8263 63.8588 82.6631 65.8286 78.1086 67.5649C71.4706 70.0952 66.2292 72.0956 58.2734 72.0999C53.409 72.0999 47.7158 71.3408 40.8662 69.7768C40.1595 69.6132 39.4156 69.7768 38.8397 70.213C38.2639 70.6537 37.9105 71.3277 37.8777 72.0498L37.6116 78.0964L18.0757 91.3243C17.3908 91.7911 16.9872 92.5655 17.0003 93.3922L19.5306 229.38L19.5372 237.558L19.5522 237.557ZM275.087 234.374C209.12 216.976 165.491 220.732 152.971 222.431C153.097 222.074 153.23 221.696 153.379 221.269C155.992 213.749 161.421 198.107 182.445 198.107C187.65 198.107 193.551 199.078 199.983 200.993C232.252 210.606 251.779 212.041 260.55 212.041C260.921 212.041 261.195 212.033 261.525 212.028C273.068 216.615 274.927 228.266 275.088 229.488L275.087 234.374ZM277.595 94.6232L275.316 217.13C273.512 214.445 271.025 211.775 267.592 209.637C267.601 209.524 267.646 209.421 267.64 209.306L262.16 84.1797L277.595 94.6232ZM152.207 87.7127C153.123 85.0187 160.869 64.8804 187.564 64.8804C192.518 64.8804 197.91 65.5719 203.595 66.9352C210.243 68.5276 215.247 70.4406 219.665 72.1247C226.492 74.727 232.384 76.9782 241.243 76.9782C245.771 76.9782 250.91 76.3783 256.881 75.1502L262.659 207.117C262.072 207.137 261.372 207.15 260.559 207.15C252.056 207.15 233.063 205.738 201.388 196.306C194.502 194.258 188.134 193.215 182.456 193.215C164.888 193.215 156.487 203.093 152.214 211.347L152.21 87.7116L152.207 87.7127ZM24.4396 234.377V229.5C24.5792 228.47 26.4661 216.623 38.0076 212.034C38.337 212.036 38.6097 212.047 38.9783 212.047C47.7473 212.047 67.277 210.614 99.545 200.998C105.978 199.083 111.878 198.113 117.083 198.113C138.106 198.113 143.54 213.755 146.149 221.274C146.295 221.702 146.429 222.081 146.557 222.437C134.034 220.738 90.4077 216.975 24.4412 234.378L24.4396 234.377ZM42.6515 75.1537C48.6216 76.3775 53.763 76.9817 58.2896 76.9817C67.1434 76.9817 73.0398 74.7349 79.8676 72.1282C84.2805 70.4442 89.291 68.5312 95.9374 66.9388C101.622 65.5776 107.012 64.8839 111.968 64.8839C138.842 64.8839 146.381 84.8431 147.325 87.705V211.357C143.052 203.098 134.65 193.225 117.083 193.225C111.405 193.225 105.038 194.264 98.1515 196.316C66.4761 205.751 47.4813 207.16 38.981 207.16C38.1673 207.16 37.4671 207.147 36.8803 207.127L42.6515 75.1537ZM37.3661 84.1734L31.8866 209.299C31.8844 209.417 31.9258 209.518 31.9346 209.631C28.5012 211.771 26.0164 214.443 24.2105 217.126L21.931 94.6191L37.3661 84.1734Z" fill="black"/>
</svg>
