<svg width="16" height="16" viewBox="0 0 16 16" fill="none" xmlns="http://www.w3.org/2000/svg">
<path d="M8.86255 7.96683L12.6727 4.156C12.7364 4.09451 12.7872 4.02094 12.8221 3.93961C12.857 3.85827 12.8754 3.77079 12.8762 3.68227C12.877 3.59375 12.8601 3.50597 12.8266 3.42403C12.7931 3.3421 12.7436 3.26767 12.681 3.20507C12.6184 3.14248 12.5439 3.09298 12.462 3.05946C12.3801 3.02594 12.2923 3.00907 12.2038 3.00984C12.1152 3.01061 12.0278 3.029 11.9464 3.06394C11.8651 3.09888 11.7915 3.14966 11.73 3.21334L7.91921 7.0235L4.20381 3.30809C4.14231 3.24442 4.06874 3.19363 3.98741 3.15869C3.90607 3.12375 3.81859 3.10536 3.73007 3.10459C3.64155 3.10382 3.55377 3.12069 3.47184 3.15421C3.38991 3.18773 3.31547 3.23723 3.25288 3.29983C3.19028 3.36242 3.14078 3.43686 3.10726 3.51879C3.07374 3.60072 3.05687 3.6885 3.05764 3.77702C3.05841 3.86554 3.0768 3.95302 3.11174 4.03436C3.14668 4.11569 3.19747 4.18926 3.26114 4.25076L6.97655 7.96616L3.26114 11.6822C3.19747 11.7437 3.14668 11.8173 3.11174 11.8986C3.0768 11.98 3.05841 12.0675 3.05764 12.156C3.05687 12.2445 3.07374 12.3323 3.10726 12.4142C3.14078 12.4961 3.19028 12.5706 3.25288 12.6332C3.31547 12.6958 3.38991 12.7453 3.47184 12.7788C3.55377 12.8123 3.64156 12.8292 3.73008 12.8284C3.81859 12.8276 3.90607 12.8092 3.98741 12.7743C4.06875 12.7394 4.14231 12.6886 4.20381 12.6249L7.91921 8.9095L11.73 12.7197C11.7915 12.7833 11.8651 12.8341 11.9464 12.8691C12.0278 12.904 12.1152 12.9224 12.2038 12.9232C12.2923 12.9239 12.3801 12.9071 12.462 12.8735C12.5439 12.84 12.6184 12.7905 12.681 12.7279C12.7436 12.6653 12.7931 12.5909 12.8266 12.509C12.8601 12.427 12.877 12.3392 12.8762 12.2507C12.8754 12.1622 12.857 12.0747 12.8221 11.9934C12.7872 11.912 12.7364 11.8385 12.6727 11.777L8.86255 7.96683Z" fill="#1A1A1A"/>
</svg>
