<svg width="300" height="300" viewBox="0 0 300 300" fill="none" xmlns="http://www.w3.org/2000/svg">
<path d="M270.967 111.905L159.657 52.3048C153.929 49.2317 147.045 49.2317 141.317 52.3048L29.9866 111.905C27.5621 113.202 25.6934 115.335 24.7246 117.905C23.7585 120.478 23.7585 123.316 24.7246 125.888C25.6934 128.458 27.5621 130.592 29.9866 131.889L58.8749 147.346V180.663C58.8749 184.18 59.8305 187.632 61.6382 190.647C63.4487 193.664 66.0427 196.134 69.1474 197.788L81.9745 204.67V220.355L69.8833 241.299H69.8807C68.8351 243.099 68.8351 245.32 69.8807 247.12C70.9262 248.92 72.8584 250.018 74.9389 250H95.5055C97.5886 250.018 99.5182 248.92 100.564 247.12C101.609 245.32 101.612 243.099 100.566 241.299L88.4752 220.355L88.4725 208.134L141.294 236.416C147.022 239.489 153.906 239.489 159.634 236.416L231.805 197.787C234.91 196.133 237.504 193.663 239.315 190.646C241.122 187.631 242.078 184.179 242.075 180.662V147.346L270.964 131.888H270.966C273.388 130.591 275.26 128.458 276.226 125.888C277.194 123.315 277.194 120.477 276.226 117.905C275.26 115.335 273.388 113.201 270.966 111.904L270.967 111.905ZM76.1829 243.448L85.315 227.612L94.4471 243.448H76.1829ZM72.1835 192.069C70.1296 190.958 68.4117 189.311 67.218 187.302C66.0242 185.293 65.3996 182.999 65.4048 180.661V150.809L82.0244 159.714V197.305L72.1835 192.069ZM235.601 180.635H235.604C235.607 182.985 234.971 185.291 233.764 187.305C232.555 189.319 230.821 190.966 228.749 192.069L156.475 230.698C152.661 232.744 148.074 232.744 144.257 230.698L88.4533 200.773V163.181L141.298 191.487C143.159 192.471 145.165 193.146 147.243 193.485V220.251C147.243 222.04 148.694 223.488 150.48 223.488C152.27 223.488 153.72 222.04 153.72 220.251V193.485C155.795 193.146 157.804 192.471 159.665 191.487L235.557 150.833L235.601 180.635ZM267.907 126.146L156.475 185.77C152.661 187.816 148.074 187.816 144.257 185.77L91.1341 157.31L150.355 126.374C151.941 125.543 152.552 123.581 151.721 121.996C150.89 120.41 148.929 119.799 147.343 120.63L84.2785 153.518L33.0503 126.17C31.4649 125.328 30.4749 123.679 30.4749 121.882C30.4749 120.088 31.4648 118.439 33.0503 117.594L144.36 57.9942H144.363C148.177 55.9481 152.764 55.9481 156.581 57.9942L267.891 117.594C269.476 118.439 270.466 120.088 270.466 121.882C270.466 123.679 269.476 125.328 267.891 126.17L267.907 126.146Z" fill="black"/>
</svg>
