<svg width="24" height="24" viewBox="0 0 24 24" fill="none" xmlns="http://www.w3.org/2000/svg">
<path d="M9.61198 17.337L13.358 13.59L14.385 13.773C15.4329 13.9609 16.5134 13.8095 17.4692 13.3407C18.425 12.8719 19.2062 12.1103 19.6992 11.1667C20.1921 10.2231 20.371 9.14682 20.2098 8.09451C20.0487 7.04219 19.5558 6.06879 18.803 5.31601C18.0502 4.56323 17.0768 4.07038 16.0245 3.90919C14.9722 3.748 13.8959 3.9269 12.9523 4.41984C12.0087 4.91278 11.2471 5.69403 10.7783 6.64985C10.3095 7.60567 10.1581 8.68617 10.346 9.73405L10.53 10.762L3.53598 17.756L3.71298 20.407L6.36398 20.584L8.19698 18.751L7.48998 18.044C7.30247 17.8564 7.19718 17.602 7.19728 17.3367C7.19737 17.0714 7.30284 16.8171 7.49048 16.6295C7.67812 16.442 7.93256 16.3368 8.19783 16.3368C8.4631 16.3369 8.71747 16.4424 8.90498 16.63L9.61198 17.337ZM10.319 3.90205C11.1701 3.05091 12.2264 2.43363 13.3857 2.10983C14.545 1.78603 15.7683 1.76666 16.9373 2.05358C18.1063 2.34049 19.1815 2.92401 20.0592 3.74777C20.9369 4.57152 21.5873 5.60768 21.9477 6.75617C22.308 7.90466 22.3661 9.12667 22.1164 10.3042C21.8666 11.4817 21.3175 12.5749 20.5219 13.4782C19.7264 14.3815 18.7114 15.0645 17.5749 15.461C16.4384 15.8576 15.2188 15.9544 14.034 15.742L7.13698 22.64L2.70698 22.345C2.46505 22.3291 2.23715 22.2258 2.0657 22.0543C1.89426 21.8829 1.79094 21.655 1.77498 21.413L1.47998 16.983L8.37798 10.085C8.1784 8.97439 8.25061 7.83192 8.58844 6.75523C8.92627 5.67854 9.51967 4.69961 10.318 3.90205H10.319ZM14.561 9.55805C14.186 9.1829 13.9753 8.67414 13.9754 8.14369C13.9755 7.61325 14.1863 7.10456 14.5615 6.72955C14.9366 6.35453 15.4454 6.1439 15.9758 6.144C16.5063 6.14409 17.015 6.3549 17.39 6.73005C17.765 7.1052 17.9756 7.61396 17.9755 8.1444C17.9754 8.67485 17.7646 9.18353 17.3895 9.55855C17.0143 9.93356 16.5056 10.1442 15.9751 10.1441C15.4447 10.144 14.936 9.9332 14.561 9.55805Z" fill="white"/>
</svg>
