<svg width="72" height="72" viewBox="0 0 72 72" fill="none" xmlns="http://www.w3.org/2000/svg">
<rect width="72" height="72" rx="36" fill="#3958C9"/>
<path fill-rule="evenodd" clip-rule="evenodd" d="M36.0292 21.8245C32.3717 21.8245 29.4068 24.821 29.4068 28.5174C29.4068 32.2138 32.3717 35.2103 36.0292 35.2103C39.6866 35.2103 42.6515 32.2138 42.6515 28.5174C42.6515 24.821 39.6866 21.8245 36.0292 21.8245ZM25.6226 28.5174C25.6226 22.7088 30.2818 18 36.0292 18C41.7765 18 46.4357 22.7088 46.4357 28.5174C46.4357 32.2934 44.4668 35.6046 41.51 37.4597C43.8027 38.0697 45.8198 39.1061 47.5191 40.6091C50.4714 43.2202 52.2297 47.0324 52.9763 51.7877C53.1401 52.8308 52.4362 53.8106 51.4042 53.9761C50.3721 54.1416 49.4027 53.4302 49.2389 52.3872C48.5844 48.2186 47.1196 45.3379 45.027 43.4871C42.9413 41.6424 39.9978 40.6139 35.9731 40.6139C31.948 40.6139 29.0107 41.6426 26.9351 43.4849C24.8527 45.3333 23.4 48.2114 22.7622 52.3797C22.6026 53.4234 21.6359 54.1386 20.6032 53.9773C19.5705 53.8159 18.8628 52.839 19.0225 51.7952C19.7501 47.0396 21.4935 43.2249 24.438 40.6113C26.1519 39.09 28.1927 38.0467 30.5159 37.4393C27.5771 35.5804 25.6226 32.2796 25.6226 28.5174Z" fill="white"/>
</svg>
