<svg width="18" height="18" viewBox="0 0 18 18" fill="none" xmlns="http://www.w3.org/2000/svg">
<path d="M15 9C15 7.6425 12.18 6.01125 8.99475 6C5.83125 5.98875 3 7.6335 3 9C3 10.3687 5.8155 12.0045 8.99775 12C12.189 11.9955 15 10.365 15 9ZM9 13.5C5.2185 13.5052 1.5 11.4855 1.5 9C1.5 6.5145 5.238 4.48725 9 4.5C12.762 4.51275 16.5 6.5145 16.5 9C16.5 11.4855 12.7815 13.4947 9 13.5ZM9 12C8.20435 12 7.44129 11.6839 6.87868 11.1213C6.31607 10.5587 6 9.79565 6 9C6 8.20435 6.31607 7.44129 6.87868 6.87868C7.44129 6.31607 8.20435 6 9 6C9.79565 6 10.5587 6.31607 11.1213 6.87868C11.6839 7.44129 12 8.20435 12 9C12 9.79565 11.6839 10.5587 11.1213 11.1213C10.5587 11.6839 9.79565 12 9 12ZM9 10.5C9.39782 10.5 9.77936 10.342 10.0607 10.0607C10.342 9.77935 10.5 9.39782 10.5 9C10.5 8.60217 10.342 8.22064 10.0607 7.93934C9.77936 7.65803 9.39782 7.5 9 7.5C8.60218 7.5 8.22064 7.65803 7.93934 7.93934C7.65804 8.22064 7.5 8.60217 7.5 9C7.5 9.39782 7.65804 9.77935 7.93934 10.0607C8.22064 10.342 8.60218 10.5 9 10.5Z" fill="#8C8C8C"/>
</svg>
