<svg width="300" height="300" viewBox="0 0 300 300" fill="none" xmlns="http://www.w3.org/2000/svg">
<path d="M261.998 101.749C261.998 97.3311 258.416 93.7498 253.998 93.7498H195.737L193.486 81.2632L193.239 80.4082C191.548 74.5453 188.004 69.3902 183.137 65.7105C178.268 62.0323 172.341 60.0284 166.239 60H132.715C126.613 60.0283 120.686 62.0321 115.819 65.7105C110.951 69.3906 107.406 74.5453 105.715 80.4082L105.468 81.2632L103.218 93.7498H45C40.5817 93.7498 37 97.3315 37 101.75V138.751C36.9944 144.42 37.9455 150.048 39.8119 155.4V228.749C39.8119 231.734 40.9965 234.595 43.1078 236.704C45.2172 238.813 48.0782 240 51.0612 240H247.94C250.923 240 253.784 238.813 255.893 236.704C258.005 234.595 259.189 231.734 259.189 228.749V155.4C261.056 150.047 262.007 144.42 262.001 138.751L261.998 101.749ZM110.908 82.5004L111.066 81.9147C112.411 77.2138 115.251 73.078 119.157 70.134C123.063 67.1903 127.821 65.6007 132.712 65.6026H166.281C171.172 65.6007 175.93 67.1903 179.835 70.134C183.742 73.0777 186.582 77.2138 187.926 81.9147L188.085 82.5004L189.996 93.7498H178.611L177.105 85.0428C176.434 82.6904 175.014 80.6187 173.061 79.1461C171.108 77.6715 168.727 76.8748 166.281 76.8748H132.712C130.265 76.8748 127.885 77.6715 125.932 79.1461C123.979 80.6189 122.559 82.6907 121.888 85.0428L120.382 93.7498H108.997L110.908 82.5004ZM172.897 93.7498H126.096L127.378 86.3479C128.15 84.0559 130.294 82.5096 132.712 82.5002H166.281C168.699 82.5096 170.843 84.0559 171.614 86.3479L172.897 93.7498ZM42.622 138.751V99.3755H256.371L256.373 138.751C256.373 150.686 251.631 162.131 243.191 170.571C234.754 179.01 223.306 183.751 211.371 183.751H163.56V166.876H135.434V183.751H87.6224C75.6874 183.751 64.2404 179.01 55.8029 170.571C47.3634 162.131 42.621 150.686 42.621 138.751H42.622ZM157.932 172.501V195H141.057V172.501H157.932ZM248.002 234.355L51.0557 234.353C47.95 234.353 45.432 231.835 45.432 228.727V166.694C54.802 180.85 70.6428 189.366 87.6196 189.376H135.431V200.625H163.555V189.376H211.369C228.345 189.367 244.186 180.85 253.556 166.694V228.751C253.556 230.243 252.965 231.674 251.91 232.729C250.854 233.784 249.424 234.377 247.932 234.377L248.002 234.355Z" fill="black"/>
</svg>
