<svg width="32" height="32" viewBox="0 0 32 32" fill="none" xmlns="http://www.w3.org/2000/svg">
<rect width="32" height="32" rx="16" fill="#FFF9BE"/>
<path d="M13.663 21H18.336H13.663ZM16 7V8V7ZM22.364 9.636L21.657 10.343L22.364 9.636ZM25 16H24H25ZM8 16H7H8ZM10.343 10.343L9.636 9.636L10.343 10.343ZM12.464 19.536C11.7649 18.8367 11.2888 17.9458 11.096 16.9759C10.9032 16.006 11.0023 15.0008 11.3807 14.0872C11.7592 13.1737 12.4001 12.3928 13.2223 11.8435C14.0445 11.2941 15.0111 11.0009 16 11.0009C16.9889 11.0009 17.9555 11.2941 18.7777 11.8435C19.5999 12.3928 20.2408 13.1737 20.6193 14.0872C20.9977 15.0008 21.0968 16.006 20.904 16.9759C20.7112 17.9458 20.2351 18.8367 19.536 19.536L18.988 20.083C18.6747 20.3963 18.4262 20.7683 18.2567 21.1777C18.0872 21.5871 17.9999 22.0259 18 22.469V23C18 23.5304 17.7893 24.0391 17.4142 24.4142C17.0391 24.7893 16.5304 25 16 25C15.4696 25 14.9609 24.7893 14.5858 24.4142C14.2107 24.0391 14 23.5304 14 23V22.469C14 21.574 13.644 20.715 13.012 20.083L12.464 19.536Z" stroke="#444748" stroke-width="2" stroke-linecap="round" stroke-linejoin="round"/>
</svg>
