<svg width="12" height="14" viewBox="0 0 12 14" fill="none" xmlns="http://www.w3.org/2000/svg">
<path d="M9.84475 7.37031C9.8385 6.30469 10.3213 5.50156 11.2963 4.90938C10.751 4.12813 9.926 3.69844 8.8385 3.61563C7.80881 3.53438 6.68225 4.21563 6.26975 4.21563C5.83381 4.21563 4.83694 3.64375 4.05256 3.64375C2.43381 3.66875 0.713501 4.93438 0.713501 7.50938C0.713501 8.27031 0.852563 9.05625 1.13069 9.86563C1.50256 10.9313 2.84319 13.5422 4.24163 13.5C4.97288 13.4828 5.49006 12.9813 6.44163 12.9813C7.36506 12.9813 7.84319 13.5 8.65881 13.5C10.0698 13.4797 11.2823 11.1063 11.6354 10.0375C9.74319 9.14531 9.84475 7.425 9.84475 7.37031ZM8.20256 2.60469C8.99475 1.66406 8.92288 0.807813 8.89944 0.5C8.19944 0.540625 7.39006 0.976563 6.92913 1.5125C6.42131 2.0875 6.12288 2.79844 6.18694 3.6C6.94319 3.65781 7.63381 3.26875 8.20256 2.60469Z" fill="currentColor"/>
</svg>
