<svg width="169" height="40" viewBox="0 0 169 40" fill="none" xmlns="http://www.w3.org/2000/svg">
<rect width="169" height="34" rx="8" fill="#3D4C4B"/>
<path d="M9.00426 22H10.8487V18.2713H12.728L14.7266 22H16.7848L14.5824 17.9631C15.7805 17.4808 16.4119 16.4567 16.4119 15.0746C16.4119 13.1307 15.1591 11.8182 12.8224 11.8182H9.00426V22ZM10.8487 16.7401V13.3594H12.5391C13.9162 13.3594 14.5327 13.9908 14.5327 15.0746C14.5327 16.1584 13.9162 16.7401 12.549 16.7401H10.8487ZM21.3015 22.1491C23.0813 22.1491 24.3043 21.2791 24.6225 19.9517L22.9421 19.7628C22.6985 20.4091 22.1019 20.7472 21.3263 20.7472C20.163 20.7472 19.3924 19.9815 19.3775 18.674H24.6971V18.1222C24.6971 15.4425 23.0863 14.2642 21.207 14.2642C19.0195 14.2642 17.5927 15.87 17.5927 18.2266C17.5927 20.6229 18.9996 22.1491 21.3015 22.1491ZM19.3825 17.4609C19.4371 16.4865 20.158 15.6662 21.2319 15.6662C22.266 15.6662 22.962 16.4219 22.9719 17.4609H19.3825ZM26.2196 22H28.0194V17.3565C28.0194 16.4169 28.6458 15.7805 29.4213 15.7805C30.182 15.7805 30.704 16.2926 30.704 17.0781V22H32.4689V17.2372C32.4689 16.3771 32.981 15.7805 33.851 15.7805C34.5769 15.7805 35.1536 16.2081 35.1536 17.1527V22H36.9583V16.8743C36.9583 15.169 35.9739 14.2642 34.5719 14.2642C33.4632 14.2642 32.6181 14.8111 32.28 15.6612H32.2005C31.9071 14.7962 31.1664 14.2642 30.1373 14.2642C29.1131 14.2642 28.3475 14.7912 28.0293 15.6612H27.9398V14.3636H26.2196V22ZM42.1151 22.1491C44.3523 22.1491 45.7741 20.5732 45.7741 18.2116C45.7741 15.8452 44.3523 14.2642 42.1151 14.2642C39.8778 14.2642 38.456 15.8452 38.456 18.2116C38.456 20.5732 39.8778 22.1491 42.1151 22.1491ZM42.125 20.7074C40.8871 20.7074 40.2805 19.6037 40.2805 18.2067C40.2805 16.8097 40.8871 15.6911 42.125 15.6911C43.343 15.6911 43.9496 16.8097 43.9496 18.2067C43.9496 19.6037 43.343 20.7074 42.125 20.7074ZM53.8629 14.3636H51.9489L50.1889 20.0362H50.1094L48.3544 14.3636H46.4354L49.1548 22H51.1435L53.8629 14.3636ZM58.2292 22.1491C60.0091 22.1491 61.2321 21.2791 61.5502 19.9517L59.8699 19.7628C59.6262 20.4091 59.0297 20.7472 58.2541 20.7472C57.0907 20.7472 56.3201 19.9815 56.3052 18.674H61.6248V18.1222C61.6248 15.4425 60.014 14.2642 58.1348 14.2642C55.9473 14.2642 54.5204 15.87 54.5204 18.2266C54.5204 20.6229 55.9274 22.1491 58.2292 22.1491ZM56.3102 17.4609C56.3649 16.4865 57.0858 15.6662 58.1596 15.6662C59.1937 15.6662 59.8897 16.4219 59.8997 17.4609H56.3102ZM70.4879 14.3636H68.902V13.7621C68.902 13.1655 69.1506 12.8324 69.8217 12.8324C70.1051 12.8324 70.3438 12.897 70.4929 12.9418L70.8558 11.5497C70.6222 11.4702 70.1101 11.3409 69.4886 11.3409C68.1612 11.3409 67.1023 12.1016 67.1023 13.6428V14.3636H65.9737V15.7557H67.1023V22H68.902V15.7557H70.4879V14.3636ZM71.8974 22H73.6971V17.5107C73.6971 16.5412 74.4279 15.8551 75.4173 15.8551C75.7205 15.8551 76.0984 15.9098 76.2525 15.9595V14.304C76.0884 14.2741 75.805 14.2543 75.6062 14.2543C74.7312 14.2543 74.0004 14.7514 73.7219 15.6364H73.6424V14.3636H71.8974V22ZM80.4647 22.1491C82.7019 22.1491 84.1238 20.5732 84.1238 18.2116C84.1238 15.8452 82.7019 14.2642 80.4647 14.2642C78.2275 14.2642 76.8056 15.8452 76.8056 18.2116C76.8056 20.5732 78.2275 22.1491 80.4647 22.1491ZM80.4746 20.7074C79.2367 20.7074 78.6301 19.6037 78.6301 18.2067C78.6301 16.8097 79.2367 15.6911 80.4746 15.6911C81.6926 15.6911 82.2992 16.8097 82.2992 18.2067C82.2992 19.6037 81.6926 20.7074 80.4746 20.7074ZM85.6513 22H87.451V17.3565C87.451 16.4169 88.0774 15.7805 88.853 15.7805C89.6136 15.7805 90.1357 16.2926 90.1357 17.0781V22H91.9006V17.2372C91.9006 16.3771 92.4126 15.7805 93.2827 15.7805C94.0085 15.7805 94.5852 16.2081 94.5852 17.1527V22H96.3899V16.8743C96.3899 15.169 95.4055 14.2642 94.0036 14.2642C92.8949 14.2642 92.0497 14.8111 91.7116 15.6612H91.6321C91.3388 14.7962 90.598 14.2642 89.5689 14.2642C88.5447 14.2642 87.7791 14.7912 87.4609 15.6612H87.3714V14.3636H85.6513V22ZM107.301 14.6172H109.076C109.041 12.897 107.575 11.679 105.407 11.679C103.269 11.679 101.664 12.8821 101.669 14.6818C101.669 16.1435 102.708 16.9837 104.383 17.4162L105.541 17.7145C106.64 17.9929 107.366 18.3359 107.371 19.1264C107.366 19.9964 106.541 20.5781 105.338 20.5781C104.184 20.5781 103.289 20.0611 103.215 18.9922H101.4C101.475 21.0156 102.981 22.1541 105.352 22.1541C107.794 22.1541 109.21 20.9361 109.215 19.1413C109.21 17.3764 107.754 16.571 106.222 16.2081L105.268 15.9695C104.433 15.7706 103.528 15.4176 103.538 14.5675C103.543 13.8018 104.229 13.2401 105.382 13.2401C106.481 13.2401 107.207 13.7521 107.301 14.6172ZM115.647 18.7884C115.647 19.9517 114.817 20.5284 114.022 20.5284C113.157 20.5284 112.58 19.9169 112.58 18.9474V14.3636H110.78V19.2259C110.78 21.0604 111.824 22.0994 113.326 22.0994C114.469 22.0994 115.275 21.4979 115.623 20.6428H115.702V22H117.447V14.3636H115.647V18.7884ZM119.298 22H121.097V17.3565C121.097 16.4169 121.724 15.7805 122.499 15.7805C123.26 15.7805 123.782 16.2926 123.782 17.0781V22H125.547V17.2372C125.547 16.3771 126.059 15.7805 126.929 15.7805C127.655 15.7805 128.232 16.2081 128.232 17.1527V22H130.036V16.8743C130.036 15.169 129.052 14.2642 127.65 14.2642C126.541 14.2642 125.696 14.8111 125.358 15.6612H125.279C124.985 14.7962 124.244 14.2642 123.215 14.2642C122.191 14.2642 121.426 14.7912 121.107 15.6612H121.018V14.3636H119.298V22ZM131.862 22H133.662V17.3565C133.662 16.4169 134.288 15.7805 135.064 15.7805C135.825 15.7805 136.347 16.2926 136.347 17.0781V22H138.112V17.2372C138.112 16.3771 138.624 15.7805 139.494 15.7805C140.219 15.7805 140.796 16.2081 140.796 17.1527V22H142.601V16.8743C142.601 15.169 141.616 14.2642 140.214 14.2642C139.106 14.2642 138.261 14.8111 137.923 15.6612H137.843C137.55 14.7962 136.809 14.2642 135.78 14.2642C134.756 14.2642 133.99 14.7912 133.672 15.6612H133.582V14.3636H131.862V22ZM146.624 22.1541C147.822 22.1541 148.538 21.5923 148.866 20.951H148.926V22H150.656V16.8892C150.656 14.8707 149.01 14.2642 147.554 14.2642C145.948 14.2642 144.715 14.9801 144.317 16.3722L145.998 16.6108C146.177 16.0888 146.684 15.6413 147.564 15.6413C148.399 15.6413 148.856 16.0689 148.856 16.8196V16.8494C148.856 17.3665 148.314 17.3913 146.967 17.5355C145.486 17.6946 144.069 18.1371 144.069 19.8572C144.069 21.3587 145.167 22.1541 146.624 22.1541ZM147.091 20.8317C146.341 20.8317 145.804 20.4886 145.804 19.8274C145.804 19.1364 146.405 18.848 147.211 18.7337C147.683 18.669 148.628 18.5497 148.861 18.3608V19.2607C148.861 20.1108 148.175 20.8317 147.091 20.8317ZM152.466 22H154.265V17.5107C154.265 16.5412 154.996 15.8551 155.986 15.8551C156.289 15.8551 156.667 15.9098 156.821 15.9595V14.304C156.657 14.2741 156.373 14.2543 156.175 14.2543C155.3 14.2543 154.569 14.7514 154.29 15.6364H154.211V14.3636H152.466V22ZM158.017 22H159.816V14.3636H158.017V22ZM158.921 13.2798C159.493 13.2798 159.96 12.8423 159.96 12.3054C159.96 11.7635 159.493 11.326 158.921 11.326C158.345 11.326 157.877 11.7635 157.877 12.3054C157.877 12.8423 158.345 13.2798 158.921 13.2798Z" fill="white"/>
<path d="M141 34H147H153L147 40L141 34Z" fill="#3D4C4B"/>
</svg>
