<svg width="130" height="40" viewBox="0 0 130 40" fill="none" xmlns="http://www.w3.org/2000/svg">
<rect width="130" height="34" rx="8" fill="#3D4C4B"/>
<path d="M14.5376 14.6172H16.3125C16.2777 12.897 14.8111 11.679 12.6435 11.679C10.5057 11.679 8.89986 12.8821 8.90483 14.6818C8.90483 16.1435 9.94389 16.9837 11.6193 17.4162L12.7777 17.7145C13.8764 17.9929 14.6023 18.3359 14.6072 19.1264C14.6023 19.9964 13.777 20.5781 12.5739 20.5781C11.4205 20.5781 10.5256 20.0611 10.451 18.9922H8.63636C8.71094 21.0156 10.2173 22.1541 12.5888 22.1541C15.0298 22.1541 16.4467 20.9361 16.4517 19.1413C16.4467 17.3764 14.9901 16.571 13.4588 16.2081L12.5043 15.9695C11.669 15.7706 10.7642 15.4176 10.7741 14.5675C10.7791 13.8018 11.4652 13.2401 12.6186 13.2401C13.7173 13.2401 14.4432 13.7521 14.5376 14.6172ZM20.214 22.1541C21.4121 22.1541 22.128 21.5923 22.4561 20.951H22.5158V22H24.2459V16.8892C24.2459 14.8707 22.6003 14.2642 21.1436 14.2642C19.5378 14.2642 18.3049 14.9801 17.9071 16.3722L19.5875 16.6108C19.7665 16.0888 20.2736 15.6413 21.1536 15.6413C21.9888 15.6413 22.4462 16.0689 22.4462 16.8196V16.8494C22.4462 17.3665 21.9043 17.3913 20.557 17.5355C19.0755 17.6946 17.6586 18.1371 17.6586 19.8572C17.6586 21.3587 18.7573 22.1541 20.214 22.1541ZM20.6813 20.8317C19.9306 20.8317 19.3936 20.4886 19.3936 19.8274C19.3936 19.1364 19.9952 18.848 20.8006 18.7337C21.2729 18.669 22.2175 18.5497 22.4512 18.3608V19.2607C22.4512 20.1108 21.7651 20.8317 20.6813 20.8317ZM32.6032 14.3636H30.6891L28.9292 20.0362H28.8496L27.0946 14.3636H25.1756L27.8951 22H29.8837L32.6032 14.3636ZM36.9695 22.1491C38.7493 22.1491 39.9723 21.2791 40.2905 19.9517L38.6101 19.7628C38.3665 20.4091 37.7699 20.7472 36.9943 20.7472C35.831 20.7472 35.0604 19.9815 35.0455 18.674H40.3651V18.1222C40.3651 15.4425 38.7543 14.2642 36.875 14.2642C34.6875 14.2642 33.2607 15.87 33.2607 18.2266C33.2607 20.6229 34.6676 22.1491 36.9695 22.1491ZM35.0504 17.4609C35.1051 16.4865 35.826 15.6662 36.8999 15.6662C37.9339 15.6662 38.63 16.4219 38.6399 17.4609H35.0504ZM49.1735 14.3636H47.6671V12.5341H45.8674V14.3636H44.7836V15.7557H45.8674V20.0014C45.8574 21.4382 46.9015 22.1442 48.2537 22.1044C48.7658 22.0895 49.1188 21.9901 49.3127 21.9254L49.0094 20.5185C48.91 20.5433 48.7061 20.5881 48.4824 20.5881C48.03 20.5881 47.6671 20.429 47.6671 19.7031V15.7557H49.1735V14.3636ZM53.9276 22.1491C56.1648 22.1491 57.5866 20.5732 57.5866 18.2116C57.5866 15.8452 56.1648 14.2642 53.9276 14.2642C51.6903 14.2642 50.2685 15.8452 50.2685 18.2116C50.2685 20.5732 51.6903 22.1491 53.9276 22.1491ZM53.9375 20.7074C52.6996 20.7074 52.093 19.6037 52.093 18.2067C52.093 16.8097 52.6996 15.6911 53.9375 15.6911C55.1555 15.6911 55.7621 16.8097 55.7621 18.2067C55.7621 19.6037 55.1555 20.7074 53.9375 20.7074ZM68.1998 14.6172H69.9746C69.9398 12.897 68.4732 11.679 66.3056 11.679C64.1678 11.679 62.562 12.8821 62.5669 14.6818C62.5669 16.1435 63.606 16.9837 65.2814 17.4162L66.4398 17.7145C67.5385 17.9929 68.2644 18.3359 68.2694 19.1264C68.2644 19.9964 67.4391 20.5781 66.236 20.5781C65.0826 20.5781 64.1877 20.0611 64.1131 18.9922H62.2985C62.373 21.0156 63.8794 22.1541 66.2509 22.1541C68.6919 22.1541 70.1088 20.9361 70.1138 19.1413C70.1088 17.3764 68.6522 16.571 67.1209 16.2081L66.1664 15.9695C65.3311 15.7706 64.4263 15.4176 64.4363 14.5675C64.4412 13.8018 65.1273 13.2401 66.2807 13.2401C67.3794 13.2401 68.1053 13.7521 68.1998 14.6172ZM76.5458 18.7884C76.5458 19.9517 75.7156 20.5284 74.9201 20.5284C74.055 20.5284 73.4783 19.9169 73.4783 18.9474V14.3636H71.6786V19.2259C71.6786 21.0604 72.7227 22.0994 74.2241 22.0994C75.3675 22.0994 76.1729 21.4979 76.521 20.6428H76.6005V22H78.3455V14.3636H76.5458V18.7884ZM80.1962 22H81.9959V17.3565C81.9959 16.4169 82.6223 15.7805 83.3979 15.7805C84.1586 15.7805 84.6806 16.2926 84.6806 17.0781V22H86.4455V17.2372C86.4455 16.3771 86.9576 15.7805 87.8276 15.7805C88.5534 15.7805 89.1301 16.2081 89.1301 17.1527V22H90.9348V16.8743C90.9348 15.169 89.9505 14.2642 88.5485 14.2642C87.4398 14.2642 86.5946 14.8111 86.2566 15.6612H86.177C85.8837 14.7962 85.1429 14.2642 84.1138 14.2642C83.0897 14.2642 82.324 14.7912 82.0059 15.6612H81.9164V14.3636H80.1962V22ZM92.7607 22H94.5604V17.3565C94.5604 16.4169 95.1868 15.7805 95.9624 15.7805C96.723 15.7805 97.245 16.2926 97.245 17.0781V22H99.0099V17.2372C99.0099 16.3771 99.522 15.7805 100.392 15.7805C101.118 15.7805 101.695 16.2081 101.695 17.1527V22H103.499V16.8743C103.499 15.169 102.515 14.2642 101.113 14.2642C100.004 14.2642 99.1591 14.8111 98.821 15.6612H98.7415C98.4482 14.7962 97.7074 14.2642 96.6783 14.2642C95.6541 14.2642 94.8885 14.7912 94.5703 15.6612H94.4808V14.3636H92.7607V22ZM107.523 22.1541C108.721 22.1541 109.437 21.5923 109.765 20.951H109.824V22H111.555V16.8892C111.555 14.8707 109.909 14.2642 108.452 14.2642C106.846 14.2642 105.613 14.9801 105.216 16.3722L106.896 16.6108C107.075 16.0888 107.582 15.6413 108.462 15.6413C109.297 15.6413 109.755 16.0689 109.755 16.8196V16.8494C109.755 17.3665 109.213 17.3913 107.866 17.5355C106.384 17.6946 104.967 18.1371 104.967 19.8572C104.967 21.3587 106.066 22.1541 107.523 22.1541ZM107.99 20.8317C107.239 20.8317 106.702 20.4886 106.702 19.8274C106.702 19.1364 107.304 18.848 108.109 18.7337C108.581 18.669 109.526 18.5497 109.76 18.3608V19.2607C109.76 20.1108 109.074 20.8317 107.99 20.8317ZM113.364 22H115.164V17.5107C115.164 16.5412 115.895 15.8551 116.884 15.8551C117.187 15.8551 117.565 15.9098 117.719 15.9595V14.304C117.555 14.2741 117.272 14.2543 117.073 14.2543C116.198 14.2543 115.467 14.7514 115.189 15.6364H115.109V14.3636H113.364V22ZM118.915 22H120.715V14.3636H118.915V22ZM119.82 13.2798C120.392 13.2798 120.859 12.8423 120.859 12.3054C120.859 11.7635 120.392 11.326 119.82 11.326C119.243 11.326 118.776 11.7635 118.776 12.3054C118.776 12.8423 119.243 13.2798 119.82 13.2798Z" fill="white"/>
<path d="M102 34H108H114L108 40L102 34Z" fill="#3D4C4B"/>
</svg>
