<svg width="16" height="16" viewBox="0 0 16 16" fill="none" xmlns="http://www.w3.org/2000/svg">
<path d="M4.12699 8.23018C4.24821 8.10927 4.41244 8.04137 4.58365 8.04137C4.75487 8.04137 4.9191 8.10927 5.04032 8.23018C5.10021 8.28999 5.14772 8.36102 5.18013 8.43921C5.21255 8.5174 5.22923 8.60121 5.22923 8.68585C5.22923 8.77049 5.21255 8.8543 5.18013 8.93248C5.14772 9.01067 5.10021 9.0817 5.04032 9.14151L3.67032 10.5095C3.55045 10.6291 3.45534 10.7713 3.39045 10.9277C3.32556 11.0841 3.29216 11.2518 3.29216 11.4212C3.29216 11.5905 3.32556 11.7582 3.39045 11.9147C3.45534 12.0711 3.55045 12.2132 3.67032 12.3328C3.91277 12.5747 4.24122 12.7105 4.58365 12.7105C4.92608 12.7105 5.25454 12.5747 5.49699 12.3328L8.69299 9.14151C8.75288 9.0817 8.80039 9.01067 8.8328 8.93248C8.86522 8.8543 8.8819 8.77049 8.8819 8.68585C8.8819 8.60121 8.86522 8.5174 8.8328 8.43921C8.80039 8.36102 8.75288 8.28999 8.69299 8.23018C8.633 8.17036 8.58541 8.09928 8.55293 8.02104C8.52046 7.94279 8.50374 7.8589 8.50374 7.77418C8.50374 7.68946 8.52046 7.60557 8.55293 7.52732C8.58541 7.44908 8.633 7.378 8.69299 7.31818C8.81421 7.19727 8.97844 7.12937 9.14966 7.12937C9.32087 7.12937 9.4851 7.19727 9.60632 7.31818C9.78619 7.49764 9.92888 7.71081 10.0262 7.9455C10.1236 8.18018 10.1737 8.43177 10.1737 8.68585C10.1737 8.93993 10.1236 9.19151 10.0262 9.42619C9.92888 9.66088 9.78619 9.87405 9.60632 10.0535L6.40965 13.2448C5.92484 13.7286 5.2679 14.0004 4.58299 14.0004C3.89807 14.0004 3.24113 13.7286 2.75632 13.2448C2.51657 13.0056 2.32636 12.7214 2.19658 12.4085C2.0668 12.0956 2 11.7602 2 11.4215C2 11.0828 2.0668 10.7474 2.19658 10.4345C2.32636 10.1217 2.51657 9.83745 2.75632 9.59818L4.12699 8.22951V8.23018ZM11.8737 7.77018C11.7524 7.89109 11.5882 7.95899 11.417 7.95899C11.2458 7.95899 11.0815 7.89109 10.9603 7.77018C10.9004 7.71037 10.8529 7.63934 10.8205 7.56115C10.7881 7.48296 10.7714 7.39915 10.7714 7.31451C10.7714 7.22987 10.7881 7.14606 10.8205 7.06787C10.8529 6.98969 10.9004 6.91866 10.9603 6.85885L12.3303 5.49085C12.4502 5.37121 12.5453 5.22911 12.6102 5.07267C12.6751 4.91624 12.7085 4.74854 12.7085 4.57918C12.7085 4.40982 12.6751 4.24212 12.6102 4.08569C12.5453 3.92925 12.4502 3.78715 12.3303 3.66751C12.0879 3.42569 11.7594 3.28989 11.417 3.28989C11.0746 3.28989 10.7461 3.42569 10.5037 3.66751L7.30832 6.85885C7.24843 6.91866 7.20092 6.98969 7.16851 7.06787C7.13609 7.14606 7.11941 7.22987 7.11941 7.31451C7.11941 7.39915 7.13609 7.48296 7.16851 7.56115C7.20092 7.63934 7.24843 7.71037 7.30832 7.77018C7.36831 7.83 7.4159 7.90108 7.44838 7.97932C7.48085 8.05757 7.49757 8.14146 7.49757 8.22618C7.49757 8.3109 7.48085 8.39479 7.44838 8.47303C7.4159 8.55128 7.36831 8.62236 7.30832 8.68218C7.1871 8.80309 7.02287 8.87099 6.85166 8.87099C6.68044 8.87099 6.51621 8.80309 6.39499 8.68218C6.21512 8.50272 6.07243 8.28955 5.97506 8.05486C5.8777 7.82018 5.82758 7.56859 5.82758 7.31451C5.82758 7.06043 5.8777 6.80885 5.97506 6.57416C6.07243 6.33948 6.21512 6.12631 6.39499 5.94685L9.59166 2.75551C10.0765 2.27171 10.7334 2 11.4183 2C12.1032 2 12.7602 2.27171 13.245 2.75551C13.4847 2.99478 13.6749 3.27899 13.8047 3.59186C13.9345 3.90473 14.0013 4.24013 14.0013 4.57885C14.0013 4.91757 13.9345 5.25296 13.8047 5.56583C13.6749 5.8787 13.4847 6.16291 13.245 6.40218L11.8737 7.77085V7.77018Z" fill="#595959"/>
</svg>
