<svg width="13" height="12" viewBox="0 0 13 12" fill="none" xmlns="http://www.w3.org/2000/svg">
<path d="M5.23037 0C4.56787 0 4.03193 0.5375 4.03193 1.2C4.03193 1.51719 4.1585 1.82344 4.38193 2.04844C4.60693 2.27344 4.91162 2.4 5.23037 2.4H6.42881V1.2C6.42881 0.539063 5.89287 0.0015625 5.23037 0ZM5.23037 3.2H2.03193C1.36943 3.2 0.833496 3.7375 0.833496 4.4C0.833496 5.0625 1.371 5.6 2.03193 5.6H5.22881C5.89131 5.6 6.42725 5.0625 6.42725 4.4C6.42881 3.7375 5.89131 3.2 5.23037 3.2ZM8.42725 5.6C9.08975 5.6 9.62725 5.0625 9.62568 4.4V1.2C9.62568 0.5375 9.08975 0 8.42725 0C7.76475 0 7.22881 0.5375 7.22881 1.2V4.4C7.22881 5.06406 7.76475 5.6 8.42725 5.6ZM12.8241 4.4C12.8241 3.7375 12.2866 3.2 11.6257 3.2C10.9647 3.2 10.4272 3.7375 10.4272 4.4V5.6H11.6257C12.2866 5.6 12.8241 5.0625 12.8241 4.4ZM11.6241 6.4H8.42725C7.76475 6.4 7.22881 6.9375 7.22881 7.6C7.22881 7.91719 7.35537 8.22344 7.57881 8.44844C7.80381 8.67344 8.1085 8.8 8.42725 8.8H11.6241C12.2866 8.8 12.8226 8.2625 12.8226 7.6C12.8241 6.9375 12.2866 6.40156 11.6241 6.4ZM8.42725 9.6H7.22881V10.8C7.22881 11.4625 7.76631 12 8.42725 12C9.08975 12 9.62725 11.4625 9.62568 10.8C9.62725 10.1375 9.08975 9.60156 8.42725 9.6ZM5.23037 6.4C4.56787 6.4 4.03193 6.9375 4.03193 7.6V10.8C4.03193 11.4625 4.56943 12 5.23037 12C5.89287 12 6.43037 11.4625 6.42881 10.8V7.6C6.42881 7.28281 6.30225 6.97656 6.07881 6.75156C5.85381 6.52656 5.54756 6.4 5.23037 6.4ZM0.833496 7.6C0.833496 7.91719 0.960059 8.22344 1.1835 8.44844C1.4085 8.67344 1.71318 8.8 2.03193 8.8C2.69443 8.8 3.23193 8.2625 3.23037 7.6V6.4H2.03193C1.371 6.4 0.833496 6.9375 0.833496 7.6Z" fill="currentColor"/>
</svg>
