<svg width="167" height="60" viewBox="0 0 167 60" fill="none" xmlns="http://www.w3.org/2000/svg">
<path d="M31.0121 32.6024C31.5181 32.6024 31.8796 32.1687 31.8073 31.735C31.229 28.6988 28.4097 26.8916 23.9277 26.8916C19.1567 26.8916 16.1928 28.8434 16.1928 32.3856C16.1928 35.0603 17.8555 36.7952 21.3253 37.3735L24.2892 37.8796C25.5904 38.0964 26.1687 38.4579 26.241 39.1085C26.241 39.8314 25.4458 40.1928 24.2892 40.1928C23.2771 40.1928 22.482 39.8314 22.0482 39.1808C21.8314 38.8193 21.4699 38.4579 21.0362 38.4579H16.7711C16.2651 38.4579 15.8314 38.8916 15.9759 39.3976C16.6988 42.3615 19.5904 44.241 24.2892 44.241C28.9157 44.241 32.3856 41.9277 32.3856 38.3133C32.3856 35.7832 30.7229 34.3374 27.2531 33.7591L23.8555 33.1808C22.5543 32.9639 22.1928 32.4579 22.2651 32.0241C22.2651 31.3012 23.1326 30.9398 24.1446 30.9398C25.0121 30.9398 25.8073 31.3012 26.1687 31.8796C26.3856 32.241 26.747 32.6024 27.2531 32.6024H31.0121Z" fill="#303030"/>
<path d="M45.6144 36.5782C45.6144 38.2408 44.6746 39.2529 43.1566 39.2529C41.6385 39.2529 40.771 38.2408 40.771 36.5782V27.9035C40.771 27.3975 40.4096 27.036 39.9036 27.036H35.5662C35.0602 27.036 34.6987 27.3975 34.6987 27.9035V37.8794C34.6987 41.5661 37.012 44.2408 40.5542 44.2408C43.012 44.2408 44.9638 43.0119 45.6867 40.8432C45.6867 40.7709 45.759 40.7709 45.759 40.7709C45.8313 40.7709 45.8313 40.8432 45.8313 40.8432V43.0842C45.8313 43.5902 46.1927 43.9517 46.6987 43.9517H50.6746C51.1807 43.9517 51.5421 43.5902 51.5421 43.0842V27.9035C51.5421 27.3975 51.1807 27.036 50.6746 27.036H46.3373C45.8313 27.036 45.4698 27.3975 45.4698 27.9035V36.5782H45.6144Z" fill="#303030"/>
<path d="M54.7231 43.1567C54.7231 43.6627 55.0846 44.0241 55.5906 44.0241H59.928C60.434 44.0241 60.7954 43.6627 60.7954 43.1567V34.1205C60.7954 32.6747 61.5906 31.735 62.8195 31.735C64.0484 31.735 64.8436 32.6747 64.8436 34.1205V43.1567C64.8436 43.6627 65.2051 44.0241 65.7111 44.0241H69.7593C70.2653 44.0241 70.6268 43.6627 70.6268 43.1567V34.1205C70.6268 32.6747 71.4219 31.735 72.6509 31.735C73.8798 31.735 74.675 32.6747 74.675 34.1205V43.1567C74.675 43.6627 75.0364 44.0241 75.5424 44.0241H79.8798C80.3858 44.0241 80.7472 43.6627 80.7472 43.1567V32.6024C80.7472 29.1326 78.5063 26.8916 75.3256 26.8916C72.8677 26.8916 70.8436 28.1928 70.2653 30.2892C70.2653 30.3615 70.193 30.3615 70.193 30.3615C70.1207 30.3615 70.1207 30.2892 70.0484 30.2892C69.687 28.2651 67.8075 26.9639 65.4942 26.9639C63.181 26.9639 61.446 28.2651 60.7231 30.3615C60.7231 30.4338 60.6509 30.4338 60.6509 30.4338C60.5786 30.4338 60.5786 30.3615 60.5786 30.3615V28.1205C60.5786 27.6145 60.2171 27.253 59.7111 27.253H55.7352C55.2292 27.253 54.8677 27.6145 54.8677 28.1205V43.1567H54.7231Z" fill="#303030"/>
<path d="M83.7114 43.1567C83.7114 43.6627 84.0729 44.0241 84.5789 44.0241H88.9162C89.4223 44.0241 89.7837 43.6627 89.7837 43.1567V34.1205C89.7837 32.6747 90.5789 31.735 91.8078 31.735C93.0367 31.735 93.8319 32.6747 93.8319 34.1205V43.1567C93.8319 43.6627 94.1934 44.0241 94.6994 44.0241H98.7476C99.2536 44.0241 99.615 43.6627 99.615 43.1567V34.1205C99.615 32.6747 100.41 31.735 101.639 31.735C102.868 31.735 103.663 32.6747 103.663 34.1205V43.1567C103.663 43.6627 104.025 44.0241 104.531 44.0241H108.868C109.374 44.0241 109.736 43.6627 109.736 43.1567V32.6024C109.736 29.1326 107.495 26.8916 104.314 26.8916C101.856 26.8916 99.8319 28.1928 99.2536 30.2892C99.2536 30.3615 99.1813 30.3615 99.1813 30.3615C99.109 30.3615 99.109 30.2892 99.0367 30.2892C98.6753 28.2651 96.7958 26.9639 94.4825 26.9639C92.1693 26.9639 90.4343 28.2651 89.7114 30.3615C89.7114 30.4338 89.6391 30.4338 89.6391 30.4338C89.5668 30.4338 89.5668 30.3615 89.5668 30.3615V28.1205C89.5668 27.6145 89.2054 27.253 88.6994 27.253H84.5789C84.0729 27.253 83.7114 27.6145 83.7114 28.1205V43.1567Z" fill="#303030"/>
<path d="M117.325 44.2409C119.494 44.2409 121.157 43.518 122.169 41.6385L122.241 41.5662C122.313 41.5662 122.313 41.6385 122.313 41.6385V43.0843C122.313 43.5903 122.675 43.9517 123.181 43.9517H127.085C127.591 43.9517 127.952 43.5903 127.952 43.0843V32.3855C127.952 29.277 124.988 26.8192 120.217 26.8192C115.735 26.8192 113.277 28.9879 112.627 31.6626C112.482 32.1686 112.916 32.6023 113.422 32.6023H117.325C117.759 32.6023 118.121 32.2409 118.338 31.8795C118.699 31.3011 119.277 31.0843 120.145 31.0843C121.229 31.0843 121.952 31.5903 121.952 32.4578V32.5301C121.952 33.5421 120.868 33.8313 118.048 34.0481C114.579 34.3373 111.904 35.7108 111.904 39.3975C111.904 42.7228 114.145 44.2409 117.325 44.2409ZM119.35 40.4096C118.338 40.4096 117.615 39.9036 117.615 38.9638C117.615 38.0963 118.193 37.4457 119.639 37.2289C120.072 37.1566 120.434 37.0843 120.795 37.012C121.374 36.8674 122.024 37.3011 122.024 37.9517V38.0963C121.952 39.5421 120.651 40.4096 119.35 40.4096Z" fill="#303030"/>
<path d="M130.844 43.1566C130.844 43.6626 131.205 44.024 131.711 44.024H136.049C136.555 44.024 136.916 43.6626 136.916 43.1566V35.2048C136.916 33.2529 138.217 31.9517 140.024 31.9517C140.314 31.9517 140.675 31.9517 141.037 32.024C141.615 32.0963 142.265 31.6626 142.265 31.012V27.6867C142.265 27.3252 142.049 26.9638 141.615 26.8915C141.326 26.8192 141.037 26.8192 140.747 26.8192C138.94 26.8192 137.567 27.8313 136.988 30.2168C136.988 30.2891 136.916 30.2891 136.916 30.2891C136.844 30.2891 136.844 30.2168 136.844 30.2168V27.9758C136.844 27.4698 136.482 27.1084 135.976 27.1084H131.856C131.35 27.1084 130.988 27.4698 130.988 27.9758V43.1566H130.844Z" fill="#303030"/>
<path d="M144.217 43.1567C144.217 43.6627 144.578 44.0242 145.084 44.0242H149.422C149.928 44.0242 150.289 43.6627 150.289 43.1567V27.976C150.289 27.47 149.928 27.1085 149.422 27.1085H145.084C144.578 27.1085 144.217 27.47 144.217 27.976V43.1567Z" fill="#303030"/>
<path d="M150.506 18.8675C150.506 18.7952 150.506 18.7952 150.506 18.8675C150.506 18.6506 150.506 18.5061 150.434 18.2892C150.145 16.7711 148.843 15.6145 147.253 15.6145C145.446 15.6145 144 17.0603 144 18.8675C144 20.6747 145.446 22.1205 147.253 22.1205C147.325 22.1205 147.398 22.1205 147.47 22.1205C147.398 22.3374 147.325 22.5543 147.181 22.7711C147.108 22.9157 147.036 22.988 146.964 23.0603L146.892 23.1326C146.675 23.3494 146.458 23.5663 146.169 23.7109C146.169 23.7109 146.096 23.7109 146.096 23.7832C145.952 23.9278 145.88 24.0723 145.952 24.1446C146.024 24.2169 146.169 24.2169 146.313 24.1446C146.819 23.9278 147.325 23.6386 147.759 23.3494C148.265 22.988 148.699 22.6266 149.133 22.1928C149.566 21.7591 149.855 21.2531 150.072 20.747C150.361 20.1687 150.434 19.5181 150.434 18.9398C150.506 18.9398 150.506 18.9398 150.506 18.8675Z" fill="#36DB93"/>
</svg>
