<svg width="12" height="12" viewBox="0 0 12 12" fill="none" xmlns="http://www.w3.org/2000/svg">
<path d="M1 4.5C1 4.22386 1.22386 4 1.5 4H4.5C4.77614 4 5 4.22386 5 4.5C5 4.77614 4.77614 5 4.5 5H1.5C1.22386 5 1 4.77614 1 4.5Z" fill="white"/>
<path d="M2 6C2 5.72386 2.22386 5.5 2.5 5.5H4.5C4.77614 5.5 5 5.72386 5 6C5 6.27614 4.77614 6.5 4.5 6.5H2.5C2.22386 6.5 2 6.27614 2 6Z" fill="white"/>
<path d="M3 7.5C3 7.22386 3.22386 7 3.5 7H4.5C4.77614 7 5 7.22386 5 7.5C5 7.77614 4.77614 8 4.5 8H3.5C3.22386 8 3 7.77614 3 7.5Z" fill="white"/>
<path d="M4.52513 3.52513C4.32986 3.32987 4.3282 3.01039 4.54628 2.841C5.03533 2.46114 5.60784 2.19856 6.21964 2.07686C6.99556 1.92252 7.79983 2.00173 8.53073 2.30448C9.26164 2.60723 9.88635 3.11992 10.3259 3.77772C10.7654 4.43552 11 5.20888 11 6C11 6.79113 10.7654 7.56449 10.3259 8.22228C9.88635 8.88008 9.26164 9.39277 8.53073 9.69552C7.79983 9.99827 6.99556 10.0775 6.21964 9.92314C5.60784 9.80145 5.03533 9.53886 4.54628 9.159C4.3282 8.98961 4.32986 8.67014 4.52512 8.47487C4.72039 8.27961 5.03505 8.28369 5.26 8.44385C5.60384 8.68866 5.99708 8.85928 6.41473 8.94236C6.99667 9.05811 7.59987 8.9987 8.14805 8.77164C8.69623 8.54458 9.16476 8.16006 9.49441 7.66671C9.82405 7.17337 10 6.59335 10 6C10 5.40666 9.82405 4.82664 9.49441 4.33329C9.16476 3.83994 8.69623 3.45543 8.14805 3.22836C7.59987 3.0013 6.99667 2.94189 6.41473 3.05765C5.99708 3.14072 5.60384 3.31134 5.26 3.55615C5.03505 3.71631 4.72039 3.72039 4.52513 3.52513Z" fill="white"/>
<path fill-rule="evenodd" clip-rule="evenodd" d="M7 3.5C7.27614 3.5 7.5 3.72386 7.5 4V5.69098L8.72361 6.30279C8.9706 6.42628 9.07071 6.72662 8.94721 6.97361C8.82372 7.2206 8.52338 7.32071 8.27639 7.19722L6.77639 6.44722C6.607 6.36252 6.5 6.18939 6.5 6V4C6.5 3.72386 6.72386 3.5 7 3.5Z" fill="white"/>
</svg>
